<svg preserveAspectRatio="none" overflow="visible" style="display: block;" width="24" height="24" viewBox="0 0 24 24" fill="none" xmlns="http://www.w3.org/2000/svg">
<g id="add">
<path id="Vector" d="M15.7123 16.773L7.22703 8.28769C6.93712 7.99778 6.93712 7.51694 7.22703 7.22703C7.51694 6.93712 7.99778 6.93712 8.28769 7.22703L16.773 15.7123C17.0629 16.0022 17.0629 16.4831 16.773 16.773C16.4831 17.0629 16.0022 17.0629 15.7123 16.773Z" fill="#1A1A1A"/>
<path id="Vector_2" d="M7.22703 16.773C6.93712 16.4831 6.93712 16.0022 7.22703 15.7123L15.7123 7.22703C16.0022 6.93712 16.4831 6.93712 16.773 7.22703C17.0629 7.51694 17.0629 7.99778 16.773 8.28769L8.28769 16.773C7.99778 17.0629 7.51694 17.0629 7.22703 16.773Z" fill="#1A1A1A"/>
<path id="Vector_3" opacity="0" d="M24 0H0V24H24V0Z" fill="#1A1A1A"/>
</g>
</svg>
