<svg preserveAspectRatio="none" overflow="visible" style="display: block;" width="16" height="16" viewBox="0 0 16 16" fill="none" xmlns="http://www.w3.org/2000/svg">
<g id="routing">
<path id="Vector" d="M3.64667 7.16667C3.17333 7.16667 2.69333 6.99333 2.32667 6.64C1.1 5.47333 0.606667 4.2 0.893333 2.95333C1.23333 1.48667 2.52 0.833333 3.64667 0.833333C4.77333 0.833333 6.06667 1.49333 6.4 2.95333C6.68667 4.2 6.18667 5.47333 4.96667 6.64C4.6 6.99333 4.12667 7.16667 3.64667 7.16667ZM1.86667 3.18C1.61333 4.29333 2.35333 5.28 3.02 5.91333C3.37333 6.25333 3.92667 6.24667 4.28 5.91333C4.94667 5.28 5.68667 4.29333 5.42667 3.17333C5.2 2.18667 4.32667 1.83333 3.65333 1.83333C2.97333 1.83333 2.1 2.18667 1.86667 3.18Z" fill="#F2F2F2"/>
<path id="Vector_2" d="M3.67333 4.13333C3.30667 4.13333 3.00667 3.83333 3.00667 3.46667C3.00667 3.1 3.3 2.8 3.67333 2.8H3.68C4.04667 2.8 4.34667 3.1 4.34667 3.46667C4.34667 3.83333 4.04667 4.13333 3.67333 4.13333Z" fill="#F2F2F2"/>
<path id="Vector_3" d="M12.3267 15.1667C11.8533 15.1667 11.3733 14.9933 11 14.64C9.76667 13.4733 9.26667 12.2 9.56 10.9467C9.9 9.48667 11.1933 8.82667 12.3267 8.82667C13.46 8.82667 14.7533 9.48667 15.0933 10.9467C15.38 12.1933 14.88 13.4733 13.6467 14.6333C13.28 14.9933 12.8067 15.1667 12.3267 15.1667ZM12.3267 9.83333C11.6467 9.83333 10.7667 10.1867 10.5333 11.18C10.2733 12.2933 11.02 13.2867 11.6867 13.92C12.04 14.26 12.6 14.26 12.96 13.92C13.6267 13.2867 14.3733 12.3 14.1133 11.1867C13.8933 10.1867 13.0133 9.83333 12.3267 9.83333Z" fill="#F2F2F2"/>
<path id="Vector_4" d="M12.3533 12.1333C11.9867 12.1333 11.6867 11.8333 11.6867 11.4667C11.6867 11.1 11.98 10.8 12.3533 10.8H12.36C12.7267 10.8 13.0267 11.1 13.0267 11.4667C13.0267 11.8333 12.72 12.1333 12.3533 12.1333Z" fill="#F2F2F2"/>
<path id="Vector_5" d="M8 13.1667H6.21333C5.44 13.1667 4.76667 12.7 4.5 11.98C4.22667 11.26 4.42667 10.4667 5.00667 9.95333L10.3333 5.29333C10.6533 5.01333 10.66 4.63333 10.5667 4.37333C10.4667 4.11333 10.2133 3.83333 9.78667 3.83333H8C7.72667 3.83333 7.5 3.60667 7.5 3.33333C7.5 3.06 7.72667 2.83333 8 2.83333H9.78667C10.56 2.83333 11.2333 3.3 11.5 4.02C11.7733 4.74 11.5733 5.53333 10.9933 6.04667L5.66667 10.7067C5.34667 10.9867 5.34 11.3667 5.43333 11.6267C5.53333 11.8867 5.78667 12.1667 6.21333 12.1667H8C8.27333 12.1667 8.5 12.3933 8.5 12.6667C8.5 12.94 8.27333 13.1667 8 13.1667Z" fill="#F2F2F2"/>
<path id="Vector_6" d="M8 13.1667H6.21333C5.44 13.1667 4.76667 12.7 4.5 11.98C4.22667 11.26 4.42667 10.4667 5.00667 9.95333L10.3333 5.29333C10.6533 5.01333 10.66 4.63333 10.5667 4.37333C10.4667 4.11333 10.2133 3.83333 9.78667 3.83333H8C7.72667 3.83333 7.5 3.60667 7.5 3.33333C7.5 3.06 7.72667 2.83333 8 2.83333H9.78667C10.56 2.83333 11.2333 3.3 11.5 4.02C11.7733 4.74 11.5733 5.53333 10.9933 6.04667L5.66667 10.7067C5.34667 10.9867 5.34 11.3667 5.43333 11.6267C5.53333 11.8867 5.78667 12.1667 6.21333 12.1667H8C8.27333 12.1667 8.5 12.3933 8.5 12.6667C8.5 12.94 8.27333 13.1667 8 13.1667Z" fill="#F2F2F2"/>
<g id="Vector_7" opacity="0">
</g>
</g>
</svg>
